<svg xmlns="http://www.w3.org/2000/svg" xmlns:xlink="http://www.w3.org/1999/xlink" viewBox="0 0 1920 1080" preserveAspectRatio="xMidYMid slice">
  <defs>
    <radialGradient id="g0" cx="52%" cy="45%" r="62%">
      <stop offset="0%" stop-color="#3a2b5f"/>
      <stop offset="38%" stop-color="#1f1946"/>
      <stop offset="72%" stop-color="#0e1428"/>
      <stop offset="100%" stop-color="#05070f"/>
    </radialGradient>
    
    <radialGradient id="nebula1" cx="20%" cy="20%" r="40%">
      <stop offset="0%" stop-color="#00d9ff" stop-opacity="0.5"/>
      <stop offset="50%" stop-color="#45d8ff" stop-opacity="0.25"/>
      <stop offset="100%" stop-color="#45d8ff" stop-opacity="0"/>
    </radialGradient>
    <radialGradient id="nebula2" cx="78%" cy="72%" r="35%">
      <stop offset="0%" stop-color="#a855ff" stop-opacity="0.45"/>
      <stop offset="50%" stop-color="#8c53ff" stop-opacity="0.22"/>
      <stop offset="100%" stop-color="#8c53ff" stop-opacity="0"/>
    </radialGradient>
    <radialGradient id="nebula3" cx="65%" cy="24%" r="28%">
      <stop offset="0%" stop-color="#ff00aa" stop-opacity="0.28"/>
      <stop offset="50%" stop-color="#ff00aa" stop-opacity="0.12"/>
      <stop offset="100%" stop-color="#ff00aa" stop-opacity="0"/>
    </radialGradient>
    <radialGradient id="nebula4" cx="40%" cy="65%" r="30%">
      <stop offset="0%" stop-color="#00ffcc" stop-opacity="0.22"/>
      <stop offset="50%" stop-color="#00ffcc" stop-opacity="0.1"/>
      <stop offset="100%" stop-color="#00ffcc" stop-opacity="0"/>
    </radialGradient>
    
    <radialGradient id="galaxy1" cx="50%" cy="50%" r="50%">
      <stop offset="0%" stop-color="#ffffff" stop-opacity="0.3"/>
      <stop offset="30%" stop-color="#00d9ff" stop-opacity="0.15"/>
      <stop offset="100%" stop-color="#00d9ff" stop-opacity="0"/>
    </radialGradient>
    
    <filter id="soft" x="-50%" y="-50%" width="200%" height="200%">
      <feGaussianBlur stdDeviation="35"/>
    </filter>
    <filter id="glow" x="-50%" y="-50%" width="200%" height="200%">
      <feGaussianBlur stdDeviation="15"/>
    </filter>
  </defs>

  <rect width="1920" height="1080" fill="url(#g0)"/>

  <ellipse cx="350" cy="240" rx="500" ry="320" fill="url(#nebula1)" filter="url(#soft)"/>
  <ellipse cx="1450" cy="770" rx="520" ry="340" fill="url(#nebula2)" filter="url(#soft)"/>
  <ellipse cx="1260" cy="230" rx="340" ry="230" fill="url(#nebula3)" filter="url(#soft)"/>
  <ellipse cx="750" cy="680" rx="380" ry="250" fill="url(#nebula4)" filter="url(#soft)"/>
  
  <ellipse cx="1600" cy="400" rx="60" ry="25" fill="url(#galaxy1)" filter="url(#glow)" opacity="0.6" transform="rotate(-25 1600 400)"/>
  <ellipse cx="300" cy="700" rx="50" ry="20" fill="url(#galaxy1)" filter="url(#glow)" opacity="0.5" transform="rotate(45 300 700)"/>
  <ellipse cx="950" cy="200" rx="70" ry="30" fill="url(#galaxy1)" filter="url(#glow)" opacity="0.55" transform="rotate(-15 950 200)"/>

  <g fill="#ffffff" opacity="0.9">
    <circle cx="140" cy="130" r="1.8"/><circle cx="260" cy="70" r="1.5"/><circle cx="330" cy="180" r="2.0"/>
    <circle cx="470" cy="110" r="1.4"/><circle cx="620" cy="80" r="2.2"/><circle cx="720" cy="210" r="1.3"/>
    <circle cx="860" cy="120" r="1.7"/><circle cx="1030" cy="90" r="2.0"/><circle cx="1160" cy="200" r="1.5"/>
    <circle cx="1320" cy="120" r="2.0"/><circle cx="1470" cy="170" r="1.5"/><circle cx="1620" cy="120" r="2.2"/>
    <circle cx="1750" cy="190" r="1.5"/><circle cx="1840" cy="130" r="1.8"/><circle cx="190" cy="340" r="1.7"/>
    <circle cx="420" cy="300" r="1.5"/><circle cx="580" cy="390" r="1.8"/><circle cx="720" cy="330" r="1.3"/>
    <circle cx="840" cy="420" r="2.0"/><circle cx="1010" cy="340" r="1.5"/><circle cx="1190" cy="390" r="1.8"/>
    <circle cx="1380" cy="320" r="1.4"/><circle cx="1520" cy="410" r="1.9"/><circle cx="1720" cy="370" r="1.5"/>
    <circle cx="200" cy="500" r="1.6"/><circle cx="450" cy="550" r="1.4"/><circle cx="680" cy="580" r="1.9"/>
    <circle cx="920" cy="520" r="1.5"/><circle cx="1100" cy="590" r="1.7"/><circle cx="1330" cy="540" r="1.4"/>
    <circle cx="1570" cy="600" r="2.0"/><circle cx="1790" cy="560" r="1.5"/><circle cx="150" cy="750" r="1.7"/>
    <circle cx="390" cy="720" r="1.5"/><circle cx="620" cy="790" r="1.9"/><circle cx="850" cy="730" r="1.4"/>
    <circle cx="1080" cy="810" r="2.1"/><circle cx="1300" cy="760" r="1.6"/><circle cx="1550" cy="820" r="1.8"/>
    <circle cx="1770" cy="780" r="1.5"/><circle cx="220" cy="920" r="1.6"/><circle cx="480" cy="880" r="1.4"/>
    <circle cx="730" cy="950" r="1.8"/><circle cx="990" cy="900" r="1.5"/><circle cx="1200" cy="970" r="1.9"/>
    <circle cx="1450" cy="930" r="1.4"/><circle cx="1680" cy="990" r="2.0"/><circle cx="1850" cy="950" r="1.6"/>
  </g>
  
  <g opacity="0.8">
    <circle cx="500" cy="250" r="2.5" fill="#00d9ff"><animate attributeName="opacity" values="0.5;1;0.5" dur="3s" repeatCount="indefinite"/></circle>
    <circle cx="1200" cy="600" r="2.5" fill="#a855ff"><animate attributeName="opacity" values="0.6;1;0.6" dur="4s" repeatCount="indefinite"/></circle>
    <circle cx="800" cy="850" r="2.5" fill="#ff00aa"><animate attributeName="opacity" values="0.4;1;0.4" dur="3.5s" repeatCount="indefinite"/></circle>
    <circle cx="1500" cy="300" r="2.5" fill="#00ffcc"><animate attributeName="opacity" values="0.5;1;0.5" dur="4.5s" repeatCount="indefinite"/></circle>
  </g>
</svg>
